<?xml version="1.0" encoding="UTF-8"?>
<svg id="katman_1" data-name="katman 1" xmlns="http://www.w3.org/2000/svg" viewBox="0 0 1580.98 455.15">
  <defs>
    <style>
      .cls-1, .cls-2, .cls-3 {
        fill: #fff;
      }

      .cls-4 {
        fill: #4ec1ef;
      }

      .cls-2 {
        stroke: #fff;
        stroke-miterlimit: 10;
      }

      .cls-3, .cls-5 {
        fill-rule: evenodd;
      }

      .cls-5 {
        fill: #fcfcfc;
      }
    </style>
  </defs>
  <g id="katman_2" data-name="katman 2">
    <g id="Layer_1" data-name="Layer 1">
      <path class="cls-3" d="M480.91,132.95H220.96c-5.43-.06-9.94,3.76-10,8.59h0v43.06c0,4.7,4.44,8.53,10,8.53H480.85c5.5,0,10.07-3.83,10.07-8.53v-43c0-4.7-4.5-8.64-10-8.64h0Zm-232.01,39.41h-8.21l.2-18.65h8.21l-.2,18.65Zm12.45,0h-8.21l.2-18.65h8.08l-.06,18.65Zm12.32,0h-8.15l.13-18.65h8.21l-.2,18.65h0Zm185.18-.35c-5.56-.18-9.87-4.29-9.67-9.18,.2-4.94,4.83-8.77,10.33-8.59,5.43,.18,9.67,4.12,9.67,8.88-.06,4.94-4.7,8.94-10.33,8.88h0Z"/>
      <path class="cls-5" d="M480.91,209.19H220.96c-5.43-.06-9.94,3.76-10,8.59h0v43c.06,4.82,4.57,8.71,10,8.64H480.91c5.5,0,10.07-3.88,10.07-8.64v-43.06c-.06-4.59-4.57-8.53-10.07-8.53Zm-236.71,39.41h-8.21l.2-18.65h8.21l-.2,18.65Zm12.39,0h-8.21l.2-18.65h8.08l-.06,18.65Zm12.32,0h-8.08l.06-18.59h8.21l-.2,18.59Zm189.95-.35c-5.56-.18-9.87-4.29-9.67-9.18,.2-4.94,4.83-8.77,10.33-8.59,5.43,.18,9.67,4.12,9.67,8.88-.06,5-4.7,8.94-10.33,8.88Z"/>
      <path class="cls-3" d="M480.91,285.43H220.96c-5.43-.06-9.94,3.76-10,8.59h0v43c.06,4.82,4.57,8.71,10,8.64H480.85c5.5,0,10.07-3.88,10.07-8.64v-43c0-4.65-4.5-8.59-10-8.59h0Zm-237.24,39.41h-8.21l.2-18.65h8.08l-.06,18.65Zm12.39,0h-8.21l.13-18.65h8.21l-.13,18.65Zm12.32,0h-8.15l.13-18.65h8.21l-.2,18.65h0Zm190.48-.35c-5.56-.18-9.87-4.29-9.67-9.18,.2-4.94,4.83-8.77,10.33-8.59,5.43,.18,9.67,4.12,9.67,8.88-.06,5-4.7,9-10.33,8.88h0Z"/>
      <path class="cls-4" d="M342.09,362.2c-11.92,19.65-27.55,37.29-46.23,52.24,0,0-158.95-36.24-230.88-343.79,0,0,64.58-4.82,111.99-33,0,0,63.72,49.18,170.81,73.18,0,0,1.06,2.53,2.78,7h9.47c-2.12-7.65-4.04-13.76-5.16-17.71,0,0-134.58-40.94-191.94-100.13C162.93,0,98.62,42.71,0,38.3c0,0,18.22,287.08,276.71,416.85,37.02-27.18,61.4-59.3,77.09-92.95h-11.71Z"/>
    </g>
  </g>
  <g>
    <path class="cls-2" d="M617.08,255.44h112.96l32.71-41.78h-145.66v-21.99h119.01l36.83-47.82h-186.17c-14.82,0-26.83,12.01-26.83,26.83v130.82c0,14.48,11.74,26.22,26.22,26.22h150.78l36.55-47.27h-156.38v-25.01Z"/>
    <path class="cls-2" d="M1055,280.45l-34.36,47.27h213.83l-114.88-166.28c-7.97-11.54-19.24-20.61-36.28-20.61s-29.13,9.89-36.83,20.61l-87.53,123.44-62.21-50.61,.61,1.71-1.79-1.71h1.19l112.68-90.42h-82.45l-53.04,44.8c-16.76,14.02-26.66,23.36-33.81,29.96,.55-9.62,1.1-20.89,1.1-32.16v-42.6h-36.28c-11.54,0-20.89,9.35-20.89,20.89v142.23c0,11.46,9.29,20.75,20.75,20.75h36.42v-52.77c0-8.79-.55-17.86-.82-26.38,6.32,6.32,15.12,14.29,34.08,30.78l55.52,48.37h65.92l86.3-122.03,32.98,48.65c6.05,8.79,13.74,20.06,18.69,26.66-8.8-.55-21.71-.55-32.71-.55h-46.17Z"/>
  </g>
  <g>
    <path class="cls-1" d="M1268.4,191.09c3.77,.08,7.68,.27,11.72,.57,4.04,.3,8.06,.91,12.06,1.81l-.79,8.04c-3.25-.15-6.89-.26-10.93-.34-4.04-.07-7.95-.11-11.72-.11-2.64,0-4.91,.08-6.79,.23-1.89,.15-3.44,.57-4.64,1.25-1.21,.68-2.1,1.77-2.66,3.28-.57,1.51-.85,3.59-.85,6.23,0,4,.75,6.81,2.26,8.44,1.51,1.62,3.96,2.85,7.36,3.68l15.74,4.19c6.04,1.51,10.19,4.06,12.46,7.64,2.27,3.59,3.4,8.4,3.4,14.44,0,4.53-.51,8.19-1.53,10.99-1.02,2.79-2.61,4.95-4.76,6.46-2.15,1.51-4.93,2.57-8.32,3.17s-7.44,.91-12.12,.91c-2.57,0-5.96-.11-10.19-.34-4.23-.23-9.1-.87-14.61-1.93l.79-8.27c4.45,.15,8.1,.28,10.93,.4,2.83,.11,5.27,.17,7.31,.17h6.12c3.77,0,6.76-.28,8.95-.85,2.19-.57,3.74-1.7,4.64-3.4,.91-1.7,1.36-4.17,1.36-7.42,0-2.79-.32-4.96-.96-6.51-.64-1.55-1.66-2.74-3.06-3.57-1.4-.83-3.19-1.51-5.38-2.04l-16.2-4.42c-5.74-1.51-9.76-4.04-12.06-7.59-2.3-3.55-3.45-8.3-3.45-14.27,0-4.53,.51-8.19,1.53-10.99,1.02-2.79,2.59-4.89,4.7-6.29,2.11-1.4,4.79-2.34,8.04-2.83,3.25-.49,7.13-.74,11.67-.74Z"/>
    <path class="cls-1" d="M1313.93,215.32v38.28c0,3.32,.64,5.66,1.93,7.02,1.28,1.36,3.43,2.04,6.46,2.04s5.87-.68,8.78-2.04c2.91-1.36,6.44-3.36,10.59-6l1.25,7.13c-4.23,3.4-8.36,5.97-12.4,7.7-4.04,1.74-8.14,2.6-12.29,2.6-10.12,0-15.18-5.06-15.18-15.18v-41.56h10.87Zm37.6,0v55.27h-8.83l-1.02-10.53-1.13-1.7v-43.04h10.99Z"/>
    <path class="cls-1" d="M1371.81,215.32l1.02,10.65,.79,1.59v43.04h-10.87v-55.27h9.06Zm25.48-1.36c10.04,0,15.06,5.06,15.06,15.18v41.45h-10.99v-38.28c0-3.47-.57-5.87-1.7-7.19-1.13-1.32-3.1-1.98-5.89-1.98-3.17,0-6.38,.77-9.63,2.32-3.25,1.55-7.14,3.68-11.67,6.4l-.45-7.36c4.23-3.4,8.46-6,12.68-7.81,4.23-1.81,8.42-2.72,12.57-2.72Z"/>
    <path class="cls-1" d="M1433.87,215.32v38.28c0,3.32,.64,5.66,1.93,7.02,1.28,1.36,3.43,2.04,6.46,2.04s5.87-.68,8.78-2.04c2.91-1.36,6.44-3.36,10.59-6l1.25,7.13c-4.23,3.4-8.36,5.97-12.4,7.7-4.04,1.74-8.14,2.6-12.29,2.6-10.12,0-15.18-5.06-15.18-15.18v-41.56h10.87Zm37.6,0v55.27h-8.83l-1.02-10.53-1.13-1.7v-43.04h10.99Z"/>
    <path class="cls-1" d="M1506.69,213.97c1.74,0,3.64,.08,5.72,.23,2.08,.15,4.23,.42,6.46,.79,2.23,.38,4.28,.94,6.17,1.7l-1.36,7.02c-2.64-.23-5.34-.38-8.1-.45-2.76-.07-5.12-.11-7.08-.11-4.23,0-7.57,.57-10.02,1.7-2.45,1.13-4.21,3.13-5.27,6-1.06,2.87-1.58,6.87-1.58,12s.53,9.17,1.58,12.12c1.06,2.94,2.81,4.98,5.27,6.12,2.45,1.13,5.79,1.7,10.02,1.7,1.13,0,2.61-.04,4.42-.11,1.81-.07,3.78-.19,5.89-.34,2.11-.15,4.15-.38,6.12-.68l1.02,7.25c-2.79,1.06-5.89,1.83-9.29,2.32-3.4,.49-6.76,.74-10.08,.74-6.49,0-11.68-.94-15.57-2.83-3.89-1.89-6.7-4.94-8.44-9.17-1.74-4.23-2.6-9.93-2.6-17.1s.89-12.76,2.66-16.99c1.77-4.23,4.6-7.27,8.49-9.12,3.89-1.85,9.08-2.77,15.57-2.77Z"/>
    <path class="cls-1" d="M1543.38,215.32v38.28c0,3.32,.64,5.66,1.93,7.02,1.28,1.36,3.43,2.04,6.46,2.04s5.87-.68,8.78-2.04c2.91-1.36,6.44-3.36,10.59-6l1.25,7.13c-4.23,3.4-8.36,5.97-12.4,7.7-4.04,1.74-8.14,2.6-12.29,2.6-10.12,0-15.18-5.06-15.18-15.18v-41.56h10.87Zm37.6,0v55.27h-8.83l-1.02-10.53-1.13-1.7v-43.04h10.99Z"/>
  </g>
</svg>